<svg xmlns="http://www.w3.org/2000/svg" viewBox="0 0 303.48 466.9"><defs><style>.cls-1{fill:#1c44c6;fill-rule:evenodd;}</style></defs><g id="图层_2" data-name="图层 2"><g id="图层_2-2" data-name="图层 2"><path class="cls-1" d="M293.81,303.46c-4.43-7.45-8.53-18.09-27.61-31s-37.67-17.5-55.46-22.89c0,0-11.13-2.5-27.35-10.51-11.25,4.81-23,12.21-30.49,23.34a43.35,43.35,0,0,0,3.17,4.55c3.85,4.93,11.58,8.14,14.49,10.29a54.69,54.69,0,0,1,10.91,6.32c3.74,2.31,10.13,5.8,14.78,13.24.45.7.9,1.38,1.34,2.12.9,1.56,1.86,3.29,2.85,5.22a35.87,35.87,0,0,1,1.61,30c-5.74,21-24.18,38-49.82,41-9.94.78-14.11.67-25.56.67-8.46,0-17.18-.25-26-.79C55.75,367.55,18.34,340,0,302.82v47.9C13.59,417,73.48,466.9,149.82,466.9c84.39,0,153.66-43.8,153.66-126.61C302.91,329.08,300.76,318.78,293.81,303.46Zm.45-175.69c0-43.83-19.08-74-51.88-96.93-.39,0-.74-.06-1.15-.06-51.43,0-98.3,26.84-121.54,66.08a65,65,0,0,1,30.17-7.6c26.15,0,48,16.57,54.24,39,3.65,9.61,3.34,18.11-2.15,28.75-1,2-2,3.78-3,5.42a18.38,18.38,0,0,1-1.38,2.25c-4.29,5.38-9.42,8.23-13.3,10.64-3.43,2.59-11.86,6.67-16,8.43-3,2.21-10.38,7.31-14.56,12.21-17.78,21.19-4.93,59.44-4.93,59.44,15.9-30.94,64.21-36.67,64.21-36.67,49.63-16.19,66-30.62,76.83-60.63C294.84,145.23,294.19,130.36,294.26,127.77Z"/><path class="cls-1" d="M237.29,25.62c-3.34-.22-6.64-.39-10.08-.39-64.69,0-122.3,42.38-134.52,98.59a48.74,48.74,0,0,0-3.3,17.44c0,3.18.16,9.66.16,10.23V332.76c2.47,10.68,6.63,20.23,12.86,27.6-.78,0-1.55-.06-2.31-.12-44.5-7.38-81.54-34.37-100.1-71V112.54C14.11,48.32,75.31,0,149.31,0A161.52,161.52,0,0,1,237.29,25.62Z"/></g></g></svg>